# 3ds Max Wavefront OBJ Exporter v0.97b - (c)2007 guruware
# File Created: 18.12.2017 21:52:01

mtllib SopleTrap.mtl

#
# object low
#

v  0.7159 -1.9003 0.2724
v  0.5944 -2.5663 -0.0182
v  0.9059 -1.3994 -0.0273
v  0.9512 -0.4853 0.4831
v  0.4718 2.4543 0.7094
v  1.5929 2.4543 0.3449
v  1.4341 2.4543 -0.4397
v  0.4718 2.4543 -0.5244
v  0.9256 0.0154 0.4831
v  0.4609 0.0154 0.5129
v  1.1138 0.5532 0.4831
v  0.4718 0.5950 0.5511
v  1.1632 0.0154 0.0248
v  0.9241 0.8399 -0.5629
v  0.5535 0.0154 -0.1661
v  0.4718 0.5384 -0.4392
v  1.3678 1.5737 0.4831
v  0.2453 1.2883 0.3963
v  1.5557 1.5737 -0.4397
v  0.2453 1.2883 -0.3866
v  0.2453 1.1675 -0.2953
v  -0.9057 1.7369 -0.7006
v  -0.8496 2.1566 0.4919
v  -1.5929 2.5663 0.2223
v  -1.4708 2.4228 -0.5456
v  -0.0797 0.2217 -0.1719
v  -0.0326 0.1352 -0.0176
v  -0.0466 0.8273 0.2375
v  -0.3829 0.9489 -0.3757
v  -0.7585 2.4543 0.4831
v  -0.4557 1.8460 0.4831
v  -0.6365 2.4543 -0.7094
v  -0.6365 1.3562 -0.4181
# 33 vertices

vn -0.4164 -0.3797 0.8261
vn -0.0818 -0.9614 -0.2629
vn 0.9036 -0.3075 -0.2983
vn 0.5497 -0.2534 0.7960
vn 0.0025 0.5565 0.8308
vn 0.5607 0.6380 0.5277
vn 0.6446 0.6053 -0.4670
vn 0.0659 0.5768 -0.8142
vn 0.7548 -0.0713 0.6521
vn -0.6965 -0.0547 0.7154
vn 0.7032 -0.1256 0.6998
vn -0.6390 -0.4180 0.6458
vn 0.8743 -0.1264 -0.4687
vn 0.4756 -0.3701 -0.7980
vn -0.6833 -0.2069 -0.7002
vn -0.5494 -0.6294 -0.5496
vn 0.8073 -0.1972 0.5562
vn -0.3112 -0.5257 0.7917
vn 0.8098 -0.2255 -0.5416
vn -0.1800 -0.5469 -0.8176
vn -0.8390 -0.5440 0.0138
vn -0.8358 -0.5488 0.0139
vn -0.8270 -0.5620 0.0143
vn -0.8190 -0.5736 0.0146
vn -0.4810 -0.6086 -0.6310
vn -0.4268 -0.5483 0.7192
vn -0.8019 0.2836 0.5258
vn -0.7673 0.3063 -0.5635
vn 0.1116 -0.9860 -0.1238
vn 0.0557 -0.8680 0.4935
vn -0.7263 -0.4200 0.5441
vn -0.7023 -0.6046 -0.3759
vn -0.0927 0.7353 0.6714
vn -0.4802 -0.4084 0.7763
vn -0.0705 0.7182 -0.6922
vn -0.5614 -0.5959 -0.5742
# 36 vertex normals

vt 0.5184 0.5475 0.0000
vt 0.4625 0.6484 0.0000
vt 0.4732 0.4853 0.0000
vt 0.5391 0.3763 0.0000
vt 0.1373 0.2678 0.0000
vt 0.0369 0.2018 0.0000
vt 0.0279 0.0733 0.0000
vt 0.1600 0.0281 0.0000
vt 0.5404 0.3082 0.0000
vt 0.6197 0.3486 0.0000
vt 0.5794 0.2537 0.0000
vt 0.6521 0.2850 0.0000
vt 0.3369 0.5010 0.0000
vt 0.4264 0.4082 0.0000
vt 0.3757 0.5750 0.0000
vt 0.3211 0.5606 0.0000
vt 0.4197 0.6917 0.0000
vt 0.3042 0.6246 0.0000
vt 0.6477 0.4401 0.0000
vt 0.7495 0.3113 0.0000
vt 0.6405 0.6222 0.0000
vt 0.5602 0.5941 0.0000
vt 0.6192 0.6830 0.0000
vt 0.5544 0.6996 0.0000
vt 0.2371 0.2993 0.0000
vt 0.2540 0.4143 0.0000
vt 0.2321 0.6392 0.0000
vt 0.1514 0.6174 0.0000
vt 0.2181 0.7093 0.0000
vt 0.1022 0.6709 0.0000
vt 0.5861 0.1161 0.0000
vt 0.7158 0.2216 0.0000
vt 0.3949 0.7786 0.0000
vt 0.2721 0.7461 0.0000
vt 0.6150 0.7794 0.0000
vt 0.4429 0.7563 0.0000
vt 0.2049 0.7942 0.0000
vt 0.0478 0.7519 0.0000
vt 0.6615 0.0328 0.0000
vt 0.7562 0.0811 0.0000
vt 0.3671 0.8834 0.0000
vt 0.2444 0.8509 0.0000
vt 0.5412 0.9057 0.0000
vt 0.4211 0.8636 0.0000
vt 0.8108 0.8597 0.0000
vt 0.9621 0.8753 0.0000
vt 0.9479 0.9690 0.0000
vt 0.8000 0.9309 0.0000
vt 0.8204 0.6712 0.0000
vt 0.8379 0.6640 0.0000
vt 0.8953 0.7210 0.0000
vt 0.8222 0.7673 0.0000
vt 0.8911 0.1499 0.0000
vt 0.8239 0.1997 0.0000
vt 0.2923 0.0785 0.0000
vt 0.2934 0.2261 0.0000
vt 0.7147 0.8232 0.0000
vt 0.6700 0.9508 0.0000
vt 0.8077 0.7991 0.0000
vt 0.9639 0.7991 0.0000
vt 0.8704 0.2152 0.0000
vt 0.9809 0.2000 0.0000
vt 0.3945 0.0893 0.0000
vt 0.3956 0.2369 0.0000
vt 0.7305 0.8784 0.0000
vt 0.7682 0.9811 0.0000
vt 0.0941 0.9004 0.0000
vt 0.0758 0.8954 0.0000
vt 0.7220 0.2885 0.0000
vt 0.6759 0.3488 0.0000
vt 0.6837 0.7592 0.0000
vt 0.6794 0.6628 0.0000
# 72 texture coords

g low
usemtl SoplaMaterial
s 1
f 1/1/1 2/2/2 3/3/3 4/4/4 
s 8
f 5/5/5 6/6/6 7/7/7 8/8/8 
s 1
f 4/4/4 9/9/9 10/10/10 1/1/1 
f 10/10/10 9/9/9 11/11/11 12/12/12 
s 16
f 4/13/4 3/14/3 13/15/13 9/16/9 
f 9/16/9 13/15/13 14/17/14 11/18/11 
s 4
f 3/19/3 2/20/2 15/21/15 13/22/13 
f 13/22/13 15/21/15 16/23/16 14/24/14 
s 2
f 2/25/2 1/26/1 10/27/10 15/28/15 
f 15/28/15 10/27/10 12/29/12 16/30/16 
s 1
f 12/12/12 11/11/11 17/31/17 18/32/18 
s 16
f 11/18/11 14/17/14 19/33/19 17/34/17 
s 4
f 14/24/14 16/23/16 20/35/20 19/36/19 
s 2
f 16/30/21 12/29/22 18/37/23 21/38/24 
s 1
f 18/32/18 17/31/17 6/39/6 5/40/5 
s 16
f 17/34/17 19/33/19 7/41/7 6/42/6 
s 4
f 19/36/19 20/35/20 8/43/8 7/44/7 
s 2
f 22/45/25 23/46/26 24/47/27 25/48/28 
f 26/49/29 27/50/30 28/51/31 29/52/32 
s 1
f 18/32/18 5/40/5 30/53/33 31/54/34 
s 8
f 5/5/5 8/8/8 32/55/35 30/56/33 
s 4
f 8/43/8 20/35/20 33/57/36 32/58/35 
s off
f 16/30/16 12/29/12 12/29/22 16/30/21 
f 12/29/12 18/37/18 18/37/23 12/29/22 
f 18/37/18 20/38/20 21/38/24 18/37/23 
f 20/38/20 16/30/16 16/30/21 21/38/24 
s 2
f 33/59/36 31/60/34 23/46/26 22/45/25 
s 1
f 23/61/26 31/54/34 30/53/33 24/62/27 
s 8
f 30/56/33 32/55/35 25/63/28 24/64/27 
s 4
f 22/65/25 25/66/28 32/58/35 33/57/36 
s 2
f 20/38/20 18/37/18 27/67/30 26/68/29 
s 1
f 28/69/31 27/70/30 18/32/18 31/54/34 
s 2
f 31/60/34 33/59/36 29/52/32 28/51/31 
s 4
f 29/71/32 33/57/36 20/35/20 26/72/29 
# 34 polygons

